# xmcd
#
# Track frame offsets:
#	150
#	37710
#	74281
#	113128
#
# Disc length: 1961 seconds
#
# Revision: 1
# Processed by: cddbd v1.5.2PL0 Copyright (c) Steve Scherf et al.
# Submitted via: audiograbber 1.83.01
#
DISCID=2907a704
DTITLE=Orjan Nilsen - La Guitarra
DYEAR=2008
DGENRE=Trance
TTITLE0=La Guitarra - Original Mix
TTITLE1=La Guitarra - Marcus Schossow
TTITLE2=La Guitarra - Balaeric Mix
TTITLE3=La Guitarra - Omnia Remix
EXTD=
EXTT0=
EXTT1=
EXTT2=
EXTT3=
PLAYORDER=
